<svg width="650" height="650" viewBox="0 0 650 650" fill="none" xmlns="http://www.w3.org/2000/svg">
<g id="Illustration/Landscape - Weather">
<rect width="650" height="650" fill="white"/>
<path id="Blob" fill-rule="evenodd" clip-rule="evenodd" d="M60.244 224.698C86.5329 268.426 164.975 321.565 180.427 322.738C229.305 326.451 298.888 334.666 361.036 336.871L362.917 336.936C384.874 337.673 414.679 337.747 452.33 337.155C459.758 330.502 466.689 325.769 473.123 322.957L473.63 322.738C477.075 321.281 485.953 312.005 508.315 302.482C514.467 299.862 532.66 305.718 545.378 301.055L545.999 300.822C556.274 296.899 573.217 286.717 596.827 270.276C596.684 269.893 596.538 269.51 596.388 269.128C596.945 270.062 597.495 270.999 598.037 271.94C598.578 272.879 640.443 372.847 563.676 450.27C511.329 503.064 372.176 552.804 251.304 524.37C-56.1296 457.937 47.3902 203.317 60.244 224.698Z" fill="#64FCD9"/>
<path id="Whites" fill-rule="evenodd" clip-rule="evenodd" d="M576.443 378.669C578.16 375.525 579.543 372.28 582.557 370.225C582.919 369.978 583.645 369.668 583.785 369.807C584.172 370.191 584.554 370.796 584.558 371.317C584.597 376.18 581.433 379.81 579.535 383.917C578.533 386.084 577.104 388.054 575.848 390.101C575.597 390.51 575.287 390.893 574.95 391.234C574.635 391.553 573.976 392.079 573.933 392.037C573.404 391.523 572.735 390.981 572.558 390.324C572.381 389.665 572.636 388.844 572.846 388.137C573.596 385.611 574.371 383.091 575.22 380.597C575.447 379.931 575.971 379.365 576.443 378.669Z" fill="white"/>
<path id="Whites_2" fill-rule="evenodd" clip-rule="evenodd" d="M575.939 370.773C575.695 372.36 575.691 373.901 575.34 375.359C574.813 377.543 574.16 379.715 573.346 381.808C572.399 384.243 571.291 386.624 570.118 388.961C569.345 390.5 568.384 391.955 567.404 393.376C567.059 393.876 566.402 394.158 565.893 394.548C564.808 395.379 564.536 394.056 564.542 393.76C564.598 391.074 564.459 388.393 565.268 385.729C565.859 383.783 565.81 381.65 566.15 379.618C566.38 378.249 566.818 376.917 567.114 375.557C567.557 373.518 567.933 371.465 568.381 369.427C569.144 365.955 569.949 362.518 573.387 360.512C574.075 360.11 574.394 360.113 575.087 360.564C576.649 361.58 577.307 362.754 576.896 364.655C576.467 366.636 576.303 368.675 575.939 370.773Z" fill="white"/>
<path id="Whites_3" fill-rule="evenodd" clip-rule="evenodd" d="M497.444 434.924C494.454 429.751 491.457 424.523 486.613 420.851C484.61 419.333 482.137 418.215 479.705 417.552C477.474 416.945 475.083 417.123 472.644 417.559C469.66 418.092 466.781 418.741 464.034 419.961C460.123 421.697 456.821 424.314 454.108 427.569C450.155 432.312 446.926 437.312 449.354 444.009C450.266 446.523 453.475 448.516 456.175 448.08C457.804 447.817 459.516 448.019 461.188 448.076C462.603 448.124 464.022 448.402 465.427 448.335C467.858 448.22 470.275 447.811 472.706 447.721C475.742 447.608 478.787 447.694 481.827 447.694C482.91 447.694 484.019 447.847 485.068 447.66C486.901 447.333 488.805 447.043 490.487 446.301C494.636 444.472 499.155 440.792 497.444 434.924Z" fill="white"/>
<path id="Whites_4" fill-rule="evenodd" clip-rule="evenodd" d="M235.864 443.974C235.864 443.974 243.016 444.633 252.129 441.037C261.242 437.442 263.513 430.909 263.513 430.909C263.513 430.909 261.557 421.538 259.708 419.339C257.764 417.027 254.116 416.905 252.129 417.843C250.269 418.722 246.449 419.496 243.877 423.543C242.524 425.673 243.319 429.705 241.103 435.959C240.277 438.29 235.864 443.974 235.864 443.974Z" fill="white"/>
<path id="Whites_5" fill-rule="evenodd" clip-rule="evenodd" d="M137.443 438.087C137.443 438.087 158.509 445.48 169.963 447.765C181.416 450.05 202.482 451.061 202.482 451.061C202.482 451.061 219.527 424.635 225.815 407.626C232.104 390.617 236.797 358.246 236.797 358.246C236.797 358.246 219.344 364.014 213.164 372.908C206.984 381.802 212.125 398.267 202.482 407.626C191.081 418.69 173.501 407.373 158.126 414.574C142.75 421.775 137.443 438.087 137.443 438.087Z" fill="white"/>
<path id="Whites_6" fill-rule="evenodd" clip-rule="evenodd" d="M210.864 507.628C233.906 509.671 317.298 480.836 335.731 460.969C341.5 454.751 346.774 442.386 341.359 436.318C325 417.984 253.928 393.918 268.002 361.428C272.703 350.577 301.839 342.852 301.839 342.852C301.839 342.852 306.955 340.305 307.657 339.078C308.358 337.85 305.451 336.53 305.451 336.53L335.731 337.035C335.731 337.035 335.338 344.56 331.385 347.57C320.456 355.894 307.657 355.894 305.451 367.892C302.37 384.647 333.045 408.168 349.469 417.184C391.145 440.06 403.794 461.618 549.435 446.892C530.111 458.979 479.23 489.532 403.427 505.331C279.608 531.136 191.974 505.954 210.864 507.628Z" fill="white"/>
<path id="Highlights" fill-rule="evenodd" clip-rule="evenodd" d="M417.073 225.5C430.73 237.904 469.512 296.887 476.562 311.645C476.934 312.424 478.444 317.957 478.444 317.957C478.444 317.957 463.195 320.996 454.593 324.636C445.991 328.275 430.724 337.55 430.724 337.55C430.724 337.55 386.777 337.979 358.06 337.014C303.459 335.18 237.837 334.157 198.943 324.636C190.495 322.567 167.373 306.724 160.726 296.781C153.644 286.188 165.921 271.546 179.839 257.83C218.689 219.542 311.343 129.468 417.073 225.5Z" fill="#FFB61D"/>
<path id="Whites_7" d="M497.135 237.705C495.022 238.871 491.408 237.704 489.424 238.739C485.416 240.829 481.415 236.795 477.224 238.295C474.548 239.252 471.922 240.167 469.137 240.472C467.185 240.686 465.281 241.952 463.342 242.009C460.655 242.088 458.445 243.471 456.34 245.251C454.378 246.909 452.611 248.95 450.692 250.699C450.002 251.327 449.145 251.81 448.318 251.98C447.09 252.232 444.086 252.133 442.835 252.209C440.641 252.344 438.448 252.609 436.254 252.612C434.058 252.615 403.319 261.383 399.795 263.685C399.539 263.852 399.256 263.948 398.986 264.077C399.131 263.819 399.249 263.524 399.425 263.31C401.113 261.265 402.616 259.938 404.553 258.43C407.115 256.436 409.964 254.976 412.796 253.68C415.028 252.66 417.415 252.196 419.745 251.559C421.816 250.993 423.89 250.407 425.986 250.052C428.494 249.627 431.023 249.29 433.549 249.192C435.626 249.112 437.73 249.729 439.789 249.515C442.814 249.199 447.573 248.593 450.536 247.744C451.64 247.428 452.86 246.345 453.515 245.141C454.814 242.75 456.626 241.251 458.522 240.246C460.252 239.33 462.303 239.453 464.209 239.088C465.982 238.748 467.754 238.389 469.522 237.998C471.035 237.664 472.587 237.461 474.039 236.861C475.965 236.065 477.795 234.88 479.699 233.98C480.702 233.506 481.832 233.456 482.807 232.916C485.354 231.507 524.045 222.002 527.936 223.638C531.828 225.273 525.854 229.653 524.045 229.473C522.206 229.289 520.33 229.642 518.477 229.85C516.38 230.085 514.261 230.235 512.205 230.764C510.204 231.279 508.247 232.144 506.312 233.011C504.34 233.894 502.414 234.954 500.475 235.962C499.409 236.516 498.36 237.123 497.135 237.705Z" fill="white"/>
<path id="Whites_8" d="M396.665 261.508C395.796 258.47 398.293 257.072 399.822 254.942C403.216 250.215 408.007 247.206 413.214 244.832C415.473 243.802 417.755 242.78 420.114 242.028C422.949 241.125 425.876 240.515 428.763 239.776C429.167 239.672 429.561 239.486 429.969 239.454C431.064 239.367 432.119 238.463 432.285 238.355C432.932 237.934 433.635 237.29 433.857 236.584C434.38 234.918 434.553 233.146 435.023 231.46C435.88 228.388 438.267 226.65 440.932 225.358C444.204 223.773 447.562 222.357 450.927 220.974C455.161 219.233 459.447 217.618 463.696 215.913C467.657 214.324 471.525 212.451 475.581 211.173C477.565 210.548 479.886 210.989 482.054 210.963C482.134 210.962 482.215 211.122 482.296 211.207C482.153 211.322 482.028 211.488 481.866 211.542C477.523 213.008 473.151 214.391 468.84 215.943C465.866 217.014 462.99 218.353 460.041 219.499C458.809 219.979 457.456 220.157 456.241 220.669C453.696 221.74 451.221 222.978 448.687 224.079C446.824 224.888 444.863 225.484 443.034 226.361C440.557 227.548 437.957 228.746 437.143 231.718C436.84 232.825 437.268 234.171 436.848 235.198C436.263 236.63 435.417 238.111 434.287 239.131C431.958 241.232 428.981 242.129 425.951 242.817C424.105 243.235 422.32 243.946 420.463 244.281C416.721 244.958 413.284 246.426 409.987 248.202C405.434 250.655 400.979 253.313 398.505 257.869C397.833 259.105 397.553 260.551 397.077 261.895C397.026 262.039 396.862 262.143 396.75 262.266C396.75 262.041 396.749 261.817 396.665 261.508Z" fill="white"/>
<path id="Whites_9" d="M393.835 259.828C393.645 258.966 393.432 258.185 393.456 257.411C393.507 255.814 393.536 254.193 393.838 252.633C394.983 246.719 399.211 243.007 403.444 239.253C407.002 236.097 410.673 233.006 412.842 228.586C413.687 226.863 413.574 225.171 413.528 223.316C413.419 218.909 411.002 215.826 407.985 213.282C404.889 210.673 401.375 208.544 397.961 206.333C393.695 203.569 390.065 200.271 387.749 195.639C386.362 192.867 387.052 187.359 389.342 185.24C389.896 184.727 390.775 184.325 391.511 184.312C392.356 184.298 392.768 185.057 392.568 185.959C392.527 186.146 392.433 186.426 392.299 186.472C390.482 187.087 388.713 191.741 389.956 193.505C390.855 194.78 391.179 196.525 392.222 197.621C394.28 199.784 396.61 201.701 398.916 203.613C402.775 206.814 406.814 209.806 410.565 213.125C413.371 215.609 415.383 218.854 416.182 222.502C416.586 224.344 416.225 226.518 415.346 228.406C413.558 232.245 410.77 235.208 407.569 237.946C403.783 241.186 399.594 244.149 397.184 248.673C396.103 250.703 395.371 253.029 395.02 255.304C394.747 257.076 395.322 258.975 395.482 260.82C395.505 261.081 395.317 261.36 395.226 261.63C395.014 261.469 394.748 261.346 394.603 261.138C394.337 260.756 394.143 260.324 393.835 259.828Z" fill="white"/>
<path id="Whites_10" fill-rule="evenodd" clip-rule="evenodd" d="M355.672 290.908V336.625L405.973 338.264H420.54V292.784H424.984L405.673 279.496C405.673 279.496 405.673 274.323 405.257 270.415C404.267 268.382 401.283 268.038 399.35 267.671C397.416 267.304 394.549 266.853 394.549 268.382C394.549 269.911 394.549 274.323 394.549 274.323L381.456 272.31L355.672 290.908Z" fill="white"/>
<path id="Shadow" fill-rule="evenodd" clip-rule="evenodd" d="M397.181 337.977L405.973 338.264L403.373 288.398L397.959 284.424L397.181 337.977Z" fill="#E7EAEE"/>
<path id="Whites_11" fill-rule="evenodd" clip-rule="evenodd" d="M363.26 368.672C363.635 367.815 364.489 366.816 364.286 366.131C363.867 364.721 363.173 363.126 362.082 362.228C357.286 358.282 352.183 354.872 345.89 353.593C342.559 352.916 339.545 353.312 336.627 354.9C334.461 356.079 334.28 357.88 336.147 359.366C337.154 360.167 338.163 360.966 339.193 361.738C343.573 365.019 348.427 367.335 353.731 368.646C355.736 369.142 357.804 369.491 359.862 369.62C360.918 369.686 362.014 369.12 363.26 368.672Z" fill="white"/>
<g id="Group">
<path id="Stroke" fill-rule="evenodd" clip-rule="evenodd" d="M378.06 274.542C373.525 274.426 346.65 294.768 346.05 294.425C345.45 294.081 371.649 274.293 375.451 271.651C377.423 270.28 379.469 270.353 381.539 271.815C384.424 273.852 402.291 285.204 404.696 286.336C407.462 287.638 423.935 291.437 423.079 292.486C422.592 292.763 420.159 292.981 419.42 292.882C419.208 292.854 418.782 293.045 418.759 293.187C418.017 297.6 419.261 333.282 419.433 335.078C419.465 335.412 419.805 335.808 420.112 336.007C421.363 336.819 422.742 336.728 424.172 336.783L424.411 336.794C426.93 336.925 429.21 336.396 431.339 335.293C434.118 333.852 436.774 332.174 439.468 330.572C442.301 328.886 445.1 327.142 447.943 325.474C451.876 323.166 456.165 321.641 460.424 320.106C463.006 319.176 465.749 318.666 468.445 318.091C470.781 317.593 473.153 317.27 475.509 316.871L475.565 316.867L477.874 316.924C477.538 316.223 477.233 315.505 476.861 314.824C475.567 312.455 474.189 310.131 472.959 307.73C471.51 304.901 470.29 301.952 468.78 299.159C465.385 292.884 461.902 286.655 458.4 280.439C455.071 274.531 451.675 268.662 448.299 262.78C447.856 262.007 447.345 261.273 446.893 260.504C446.779 260.308 446.774 260.048 446.718 259.817C446.916 259.966 447.166 260.079 447.305 260.271C448.98 262.598 450.727 264.879 452.286 267.282C456.689 274.072 461.098 280.861 465.337 287.753C467.569 291.383 469.458 295.223 471.487 298.976C472.891 301.574 474.303 304.168 475.647 306.796C476.335 308.141 476.881 309.558 477.492 310.943L478.485 313.21C478.982 314.343 479.488 315.471 480.033 316.581C480.15 316.819 480.911 316.976 481.236 316.84C484.891 315.319 488.667 314.001 492.122 312.105C497.623 309.085 502.829 305.531 508.315 302.482C510.838 301.079 513.662 300.055 516.475 299.392C518.406 298.936 520.397 298.597 522.636 299.119C526.268 299.967 529.578 301.547 533.082 302.626C535.458 303.357 537.922 303.442 540.491 303.245C545.42 302.866 549.179 299.983 553.351 297.982C556.114 296.658 558.783 295.135 561.484 293.681C567.492 290.449 573.486 287.191 579.501 283.97C583.127 282.029 586.781 280.139 590.423 278.226C590.791 278.033 591.143 277.794 591.532 277.661L591.927 277.526C592.278 277.411 592.651 277.316 592.776 277.44L592.911 277.577C593.542 278.241 593.875 278.948 592.599 279.587C589.765 281.006 586.973 282.507 584.176 283.997C580.542 285.932 576.925 287.9 573.29 289.832C569.795 291.69 566.28 293.509 562.785 295.367C559.104 297.325 555.443 299.318 551.763 301.278C549.425 302.524 547.186 304.199 544.688 304.83C542.416 305.404 540.123 306.501 537.488 305.679L537.214 305.587C533.972 304.419 530.451 304.047 527.153 303.006C524.528 302.177 521.865 301.61 519.196 301.822C516.116 302.066 512.982 302.562 510.048 303.499C505.327 305.006 501.336 307.933 497.409 310.915L496.254 311.791C492.909 314.311 489.482 316.717 485.347 317.883C484.281 318.184 483.225 318.528 482.186 318.911C482.107 318.94 470.496 319.286 457.981 323.624C446.1 327.742 433.28 335.862 433.313 335.945C434.183 338.128 490.377 334.217 491.714 334.336C493.364 334.482 495.018 334.579 496.672 334.674C497.286 334.709 497.906 334.649 498.52 334.686C500.118 334.78 501.713 334.915 503.311 335.01C503.925 335.046 504.545 334.986 505.159 335.022C506.813 335.117 508.464 335.251 510.118 335.346C510.732 335.382 511.352 335.321 511.966 335.358C513.564 335.452 515.16 335.586 516.757 335.683C517.315 335.716 517.879 335.661 518.437 335.693C520.092 335.788 521.745 335.915 523.4 336.011C523.957 336.044 524.519 335.996 525.076 336.029C526.786 336.128 528.494 336.257 530.203 336.355C530.762 336.387 531.325 336.333 531.883 336.365C533.537 336.461 535.19 336.59 536.844 336.687C537.402 336.719 537.964 336.669 538.522 336.701C540.232 336.8 541.94 336.929 543.65 337.027C544.208 337.059 544.769 337.032 545.329 337.032C546.749 337.032 548.169 336.997 549.587 337.047C550.272 337.071 550.947 337.304 551.633 337.359C553.396 337.499 555.162 337.599 556.928 337.7C557.43 337.728 557.937 337.679 558.439 337.709C560.149 337.809 561.857 337.935 563.567 338.036C563.943 338.058 564.322 338.049 564.7 338.044L565.078 338.04C566.442 338.04 567.81 337.969 569.168 338.055C571.897 338.229 574.62 338.522 577.349 338.702C579.783 338.862 582.223 338.929 584.659 339.05C586.705 339.152 588.749 339.281 590.795 339.382L593.719 339.531C595.181 339.605 596.643 339.672 598.106 339.71C600.843 339.783 603.583 339.773 606.321 339.819C606.481 339.822 606.766 339.997 606.776 340.111C606.851 340.931 606.871 341.757 606.908 342.58C606.473 342.523 606.039 342.435 605.602 342.414C603.147 342.291 600.687 342.235 598.235 342.057C596.175 341.908 594.13 341.533 592.069 341.426C589.908 341.313 587.737 341.419 585.571 341.385C585.111 341.378 584.661 341.122 584.196 341.074L581.197 340.747C579.864 340.606 578.529 340.48 577.192 340.417C574.807 340.305 572.411 340.43 570.022 340.373C569.126 340.352 568.238 340.071 567.339 339.982C566.627 339.912 565.902 339.98 565.186 339.939C564.405 339.895 563.629 339.79 562.85 339.721C560.291 339.495 557.736 339.178 555.173 339.074C552.395 338.961 549.608 339.088 546.826 339.029C545.707 339.005 544.593 338.756 543.475 338.62C542.726 338.529 541.976 338.439 541.223 338.38C539.627 338.256 538.03 338.142 536.432 338.045C535.874 338.012 535.311 338.066 534.753 338.035C532.931 337.936 531.112 337.773 529.289 337.722C528.373 337.697 527.449 337.939 526.532 337.923C525.028 337.896 523.527 337.735 522.023 337.673C521.043 337.632 520.057 337.71 519.078 337.655C517.349 337.558 515.626 337.372 513.897 337.278C512.846 337.222 511.788 337.291 510.735 337.265C509.943 337.245 509.152 337.112 508.362 337.127C507.866 337.136 507.373 337.323 506.878 337.431C507.158 337.669 507.434 337.911 507.718 338.143C510.772 340.639 513.802 343.166 516.889 345.62C520.375 348.392 523.933 351.073 527.422 353.841C530.468 356.257 533.457 358.744 536.48 361.189C537.482 361.999 538.509 362.777 539.526 363.567C540.146 364.049 540.063 364.306 539.401 364.564L539.303 364.601C537.064 365.41 534.89 366.427 532.611 367.089C530.587 367.677 528.453 367.877 526.376 368.29C524.535 368.655 522.718 369.149 520.868 369.448C519.697 369.638 518.483 369.551 517.292 369.635C516.197 369.712 515.1 369.809 514.015 369.973C512.372 370.222 510.749 370.614 509.101 370.802C507.696 370.963 506.266 370.896 504.849 370.98C503.642 371.052 502.433 371.15 501.236 371.318C499.482 371.566 497.748 371.965 495.989 372.152C494.47 372.314 492.925 372.213 491.399 372.331C489.774 372.456 488.162 372.742 486.538 372.882C484.378 373.068 482.211 373.165 480.05 373.334C479.475 373.379 478.914 373.617 478.34 373.648C475.773 373.787 473.203 373.865 470.636 374.006C469.783 374.053 468.939 374.266 468.086 374.323C465.987 374.463 463.886 374.611 461.783 374.658C455.483 374.798 449.181 374.938 442.879 374.982C440.239 375.001 437.59 374.62 434.956 374.716C432.657 374.8 430.423 374.728 428.138 374.397C426.015 374.09 423.807 374.438 421.649 374.299C419.886 374.185 418.146 373.752 416.388 373.508C414.296 373.217 412.194 372.996 410.103 372.692C409.838 372.654 409.376 372.205 409.414 372.106L409.762 371.22C410.872 368.422 412.094 365.691 414.074 363.328C416.515 360.417 419.412 358.12 422.674 356.254L423.121 356.002C424.319 355.338 425.502 354.633 426.749 354.074L428.62 353.228C430.079 352.574 431.55 351.946 433.068 351.486C435.511 350.744 438.061 350.358 440.56 349.797C441.974 349.479 443.368 349.056 444.792 348.794C446.905 348.405 449.042 348.149 451.158 347.774C452.747 347.493 454.33 347.156 455.896 346.766C457.972 346.249 460.047 345.711 462.093 345.085C466.368 343.777 470.559 342.263 474.193 339.543C474.384 339.4 474.608 339.302 474.817 339.183C474.546 339.026 474.291 338.816 473.999 338.728C473.742 338.651 473.444 338.712 473.164 338.712L469.692 338.716C469.113 338.716 468.534 338.714 467.956 338.711L439.883 338.538C430.525 338.482 421.168 338.43 411.81 338.394C407.992 338.38 404.174 338.699 400.356 338.688C395.138 338.673 389.92 338.501 384.702 338.372C381.108 338.283 377.515 338.098 373.92 338.063C372.12 338.045 370.316 338.373 368.515 338.354C364.473 338.312 360.431 338.166 356.389 338.035C353.747 337.949 351.106 337.74 348.463 337.728C346.382 337.719 344.3 338.006 342.218 338.016C340.529 338.024 338.838 337.745 337.15 337.762C336.798 337.766 336.072 338.685 336.165 338.893C337.286 341.391 335.915 343.389 334.708 345.194C332.324 348.754 328.906 351.01 324.757 352.252C322.365 352.968 320.044 353.925 317.714 354.842L316.84 355.183C312.356 356.917 308.77 359.617 307.451 364.501C306.784 366.972 306.381 369.427 306.757 372.103C307.585 378.008 310.485 382.718 314.323 386.986L314.606 387.298C316.7 389.589 318.74 391.956 321.042 394.025C325.738 398.248 330.476 402.443 335.419 406.37C340.251 410.208 345.245 413.872 350.382 417.29C354.811 420.236 359.512 422.781 364.149 425.402C367.132 427.087 370.179 428.673 373.272 430.147C375.869 431.384 378.588 432.364 381.229 433.515C383.563 434.533 385.819 435.74 388.188 436.663C391.462 437.939 394.79 439.088 398.133 440.176C401.151 441.159 404.201 442.062 407.273 442.86C409.902 443.543 412.591 443.991 415.238 444.608C418.656 445.404 422.046 446.318 425.471 447.08C428.07 447.658 430.697 448.115 433.324 448.556C435.694 448.954 438.076 449.287 440.459 449.595C442.528 449.861 444.602 450.092 446.681 450.264C448.684 450.43 450.7 450.457 452.703 450.623C454.762 450.794 456.81 451.102 458.87 451.265C459.845 451.342 460.836 451.192 461.82 451.197C464.011 451.209 466.203 451.22 468.392 451.296C469.748 451.343 471.099 451.588 472.454 451.604C476.261 451.648 480.07 451.62 483.878 451.62C485.746 451.62 487.618 451.707 489.479 451.596C491.521 451.475 493.596 450.802 495.575 451.042C497.987 451.335 500.243 450.981 502.566 450.638C503.626 450.481 504.736 450.696 505.81 450.595C508.906 450.305 511.989 449.87 515.088 449.624C517.779 449.411 520.489 449.433 523.183 449.245C524.574 449.148 525.944 448.776 527.334 448.607C528.719 448.44 530.122 448.416 531.507 448.247C532.968 448.068 534.43 447.855 535.867 447.544C538.721 446.927 541.582 446.319 544.395 445.542C546.454 444.974 548.438 444.139 550.461 443.437C550.586 443.394 550.831 443.425 550.884 443.508C550.954 443.617 550.954 443.877 550.871 443.962C549.658 445.203 548.495 446.511 547.164 447.612C546.764 447.943 546.138 448.038 545.533 448.101L545.001 448.155C543.271 448.344 541.516 448.353 539.801 448.623C538.061 448.898 536.372 449.495 534.632 449.773C532.867 450.054 531.067 450.106 529.284 450.28C528.413 450.365 527.543 450.481 526.678 450.615C524.592 450.94 522.517 451.34 520.425 451.604C518.116 451.895 515.791 452.052 513.476 452.298C512.126 452.441 510.787 452.692 509.436 452.81C507.171 453.009 504.898 453.126 502.632 453.309C502.001 453.36 501.384 453.567 500.753 453.628L498.252 453.874C496.585 454.036 494.916 454.189 493.245 454.289C491.552 454.39 489.846 454.271 488.148 454.316C484.89 454.401 481.632 454.625 478.374 454.619C474.649 454.613 470.922 454.472 467.2 454.291C464.357 454.152 461.525 453.8 458.682 453.656C456.633 453.552 454.569 453.722 452.521 453.609C450.851 453.517 449.198 453.153 447.53 452.974C446.031 452.813 444.522 452.755 443.019 452.622C442.092 452.54 441.161 452.448 440.246 452.28C439.146 452.079 438.063 451.78 436.968 451.545C435.97 451.331 434.97 451.122 433.964 450.953C432.126 450.643 430.287 450.334 428.441 450.082C426.944 449.876 425.422 449.83 423.935 449.57C422.69 449.352 421.481 448.925 420.255 448.596L414.436 447.034C413.466 446.775 412.495 446.518 411.524 446.264C408.824 445.558 406.082 444.996 403.421 444.17C399.492 442.951 395.619 441.555 391.722 440.235C388.676 439.204 385.596 438.258 382.591 437.117L381.281 436.617C379.097 435.776 376.922 434.883 374.886 433.76L367.96 429.952C362.189 426.774 356.441 423.554 350.857 420.074C344.958 416.399 339.477 412.045 333.876 407.904C327.687 403.328 322.279 397.872 316.987 392.327L316.175 391.471C312.406 387.458 308.888 383.213 306.536 378.164L306.288 377.619C305.442 375.714 304.305 373.71 304.256 371.727C304.147 367.288 304.972 363.014 308.293 359.539C310.926 356.784 314.116 354.969 317.389 353.258L319.531 352.148C323.367 350.157 327.238 348.222 330.971 346.051C332.296 345.28 333.455 344.021 334.335 342.741C335.298 341.339 334.465 339.459 332.768 339.084C329.852 338.441 326.904 337.858 323.939 337.547C319.848 337.119 315.729 336.952 311.619 336.721C311.262 336.701 310.704 336.939 310.546 337.226C308.358 341.198 304.93 343.664 300.754 345.06C297.518 346.141 294.15 346.823 290.879 347.807C288.432 348.542 286.088 349.637 283.622 350.281C280.317 351.143 277.434 352.832 274.883 354.903L274.154 355.505C271.016 358.136 268.212 361.134 267.428 365.501C266.843 368.756 267.007 371.837 267.981 375.087C269.392 379.799 272.298 383.366 275.494 386.822C277.09 388.548 278.787 390.182 280.476 391.819C285.696 396.876 291.341 401.399 297.248 405.645C304.211 410.649 311.562 414.924 319.174 418.846L320.966 419.762C325.355 421.996 329.769 424.225 333.618 427.407C336.706 429.96 339.511 432.764 341.359 436.318L341.967 437.492C342.93 439.377 343.838 441.383 343.893 443.341L343.923 444.473C343.963 446.253 343.932 448.117 343.384 449.995C341.469 456.546 337.208 461.342 332.44 465.758C327.554 470.283 322.095 474.093 316.251 477.326C313.87 478.644 311.588 480.156 309.146 481.343C306.809 482.479 304.312 483.281 301.906 484.279C299.15 485.424 296.468 486.77 293.66 487.764C289.679 489.172 285.609 490.326 281.584 491.612C279.013 492.433 276.476 493.372 273.884 494.12C270.705 495.038 267.476 495.782 264.285 496.659C262.196 497.233 260.154 497.984 258.058 498.524C255.43 499.201 252.76 499.713 250.122 500.353C247.582 500.969 245.074 501.721 242.526 502.297C239.303 503.026 236.057 503.656 232.814 504.294C229.924 504.863 227.027 505.398 224.128 505.925C221.553 506.393 218.972 506.827 216.394 507.281C215.7 507.404 215.004 507.653 214.318 507.626C214.025 507.615 213.779 507.016 213.466 506.736C213.023 506.34 212.538 505.991 212.072 505.621C212.717 505.543 213.371 505.508 214.006 505.377C216.118 504.941 218.217 504.433 220.334 504.023C222.817 503.542 225.324 503.184 227.801 502.68C229.594 502.316 231.346 501.748 233.136 501.366C235.48 500.865 237.857 500.513 240.195 499.99C241.905 499.607 243.566 499.013 245.267 498.584C246.51 498.27 247.799 498.131 249.038 497.804C251.103 497.26 253.132 496.577 255.199 496.046C257.268 495.515 259.381 495.154 261.448 494.617C263.614 494.054 265.736 493.323 267.901 492.752C270.383 492.097 272.907 491.595 275.382 490.914C276.842 490.512 278.222 489.827 279.673 489.383C282.165 488.622 284.72 488.052 287.184 487.215C290.763 485.998 294.29 484.628 297.83 483.299L300.238 482.395C301.842 481.789 303.442 481.172 305.022 480.508C312.743 477.263 320.065 473.31 326.572 467.983L328.116 466.717C330.173 465.023 332.208 463.299 334.091 461.427C336.81 458.722 339.167 455.65 340.494 452.004C341.271 449.867 341.953 447.572 342.011 445.331C342.066 443.235 341.463 441.137 340.647 439.029C339.469 435.991 337.723 433.514 335.305 431.646C332.022 429.111 328.464 426.906 324.903 424.76C316.936 419.959 308.715 415.557 300.945 410.462C295.72 407.036 290.946 402.906 286.099 398.92L285.189 398.174C282.009 395.579 278.874 392.889 276.001 389.965C272.031 385.924 268.267 381.718 266.101 376.276C265.029 373.582 264.679 370.977 264.797 368.143C265.059 361.875 268.622 357.644 273.065 353.783C277.293 350.11 282.284 348.06 287.515 346.458C290.74 345.47 294.027 344.689 297.265 343.741C300.059 342.923 302.857 342.093 305.578 341.068C306.421 340.75 307.363 339.9 307.657 339.078C308.269 337.364 307.31 336.536 305.451 336.53C303.918 336.525 302.389 336.162 300.852 336.035C298.96 335.878 297.054 335.865 295.166 335.669C293.457 335.491 291.772 335.069 290.062 334.903C288.325 334.734 286.57 334.756 284.824 334.67C284.518 334.655 284.221 334.474 283.913 334.451C281.864 334.291 279.808 334.2 277.764 333.994C275.938 333.809 274.13 333.446 272.304 333.268C270.628 333.105 268.938 333.085 267.254 332.998C267.039 332.987 266.825 332.953 266.61 332.933C264.471 332.731 262.327 332.569 260.194 332.315C258.377 332.099 256.581 331.707 254.762 331.525C253.135 331.362 251.489 331.385 249.853 331.315C249.59 331.303 249.331 331.21 249.068 331.187C246.92 331.003 244.768 330.857 242.624 330.638C240.9 330.461 239.19 330.156 237.466 329.988C235.743 329.82 234.009 329.767 232.283 329.628C231.875 329.595 231.484 329.344 231.077 329.315C229.07 329.177 227.054 329.15 225.055 328.946C223.294 328.767 221.558 328.327 219.797 328.149C218.168 327.985 216.519 328.032 214.881 327.945C214.531 327.927 214.194 327.659 213.843 327.636C211.78 327.498 209.714 327.412 207.652 327.279C207.03 327.239 206.417 327.072 205.796 327.032C205.667 327.024 205.519 327.325 205.379 327.483L205.676 327.581C205.725 327.596 205.775 327.61 205.826 327.621C207.556 328.001 209.301 328.322 211.014 328.767C213.048 329.296 215.087 329.837 217.067 330.535C224.062 333.002 230.655 336.236 235.391 342.155C237.183 344.394 238.338 347.176 239.585 349.804C240.239 351.182 240.726 352.746 240.824 354.255C240.977 356.613 240.742 358.997 240.657 361.369C240.603 362.886 240.603 364.411 240.43 365.915C240.262 367.37 239.92 368.806 239.623 370.244L238.806 374.207C238.396 376.188 237.977 378.168 237.522 380.139C237.164 381.689 236.543 383.176 236.148 384.72C235.744 386.297 235.519 387.92 235.129 389.502C234.679 391.329 234.111 393.126 233.636 394.948C233.115 396.945 232.687 398.968 232.134 400.957L231.808 402.122C231.476 403.287 231.122 404.447 230.677 405.567L230.448 406.123C230.13 406.861 230.251 406.891 230.763 406.926L230.928 406.937C233.982 407.155 237.056 407.246 240.076 407.698C242.319 408.034 244.492 408.846 246.692 409.459C248.449 409.949 250.201 410.458 251.955 410.961C252.104 411.004 252.246 411.069 252.392 411.123C252.25 411.181 252.109 411.287 251.967 411.288C250.584 411.301 249.189 411.415 247.822 411.268C245.58 411.028 243.332 410.719 241.132 410.237C239.555 409.892 238.071 409.142 236.506 408.72C235.759 408.518 234.907 408.565 234.124 408.666L233.017 408.807C231.723 408.975 230.429 409.163 229.185 409.514C227.139 410.092 226.144 411.808 225.236 413.515L224.936 414.082C222.345 418.95 219.853 423.869 217.291 428.752C214.413 434.236 211.498 439.701 208.604 445.176L208.37 445.631C207.34 447.694 206.536 449.93 204.327 451.111C203.861 451.36 203.195 451.236 202.621 451.284C202.675 450.852 202.603 450.349 202.801 449.999C204.909 446.275 207.064 442.578 209.196 438.867C211.144 435.475 213.161 432.119 214.999 428.668C217.806 423.399 220.605 418.119 223.177 412.734C225.153 408.594 226.814 404.302 228.538 400.046L229.621 397.377C230.883 394.262 232.126 391.138 233.199 387.959C234.437 384.291 235.345 380.509 236.341 376.763C236.934 374.533 237.608 372.299 237.903 370.023L238.101 368.494C238.527 365.176 238.916 361.834 238.854 358.514C238.8 355.618 238.222 352.592 237.194 349.882C234.979 344.041 230.88 339.603 225.542 336.374C222.027 334.249 218.354 332.48 214.276 331.61C211.995 331.124 209.812 330.182 207.533 329.685C205.614 329.266 203.622 329.034 201.658 329.006C198.887 328.966 196.113 329.222 193.339 329.293C191.286 329.345 189.226 329.225 187.177 329.333C185.954 329.397 184.746 329.751 183.532 329.975C181.709 330.311 179.862 330.551 178.069 331.004C174.343 331.945 170.558 332.756 166.954 334.055C157.688 337.397 148.997 341.943 140.921 347.577C135.449 351.393 130.342 355.693 125.83 360.63C120.98 365.939 116.812 371.745 113.978 378.396C112.876 380.981 112.001 383.674 111.193 386.369C110.62 388.279 110.091 390.262 109.978 392.237C109.837 394.715 110.16 397.219 110.246 399.713C110.289 400.982 110.166 402.261 110.279 403.522C110.385 404.71 110.612 405.906 110.947 407.051C111.422 408.674 112.028 410.261 112.609 411.852C115.81 420.619 121.289 427.44 129.763 431.598C131.682 432.54 133.758 433.23 135.833 433.759C137.232 434.115 138.497 433.712 139.333 432.163C142.624 426.065 146.942 420.813 152.802 417.01C155.776 415.08 158.908 413.389 161.998 411.64C164.572 410.182 167.384 409.429 170.289 408.92C172.072 408.608 173.798 407.839 175.583 407.694C177.602 407.53 179.659 407.835 181.699 407.934L182.203 407.936C185.312 408.047 188.429 408.343 191.528 408.217C194.351 408.102 197.076 407.568 199.811 406.413C203.755 404.748 205.751 401.923 206.758 398.106L207.387 395.619C207.757 394.147 208.107 392.671 208.331 391.177C208.574 389.555 208.242 387.849 208.461 386.22C208.767 383.944 209.207 381.664 209.853 379.463C210.342 377.797 211.163 376.232 211.844 374.62L212.065 374.081C213.46 370.562 215.865 367.719 218.49 365.147C221.594 362.107 225.135 359.58 229.36 358.19C231.015 357.646 232.618 356.943 234.265 356.372C234.513 356.286 234.876 356.528 235.186 356.618L234.822 356.859C234.761 356.898 234.699 356.937 234.637 356.973L233.523 357.622C227.776 360.98 222.123 364.478 217.694 369.584L217.252 370.097C215.561 372.069 213.968 374.122 213.322 376.783C212.882 378.599 211.879 380.298 211.576 382.123C211.176 384.542 211.227 387.033 211.053 389.491C211.016 390.01 210.801 390.514 210.734 391.034C210.476 393.042 210.537 395.145 209.944 397.046C208.678 401.106 206.562 404.727 202.709 406.894C200.626 408.066 198.435 409.222 196.146 409.801C194.1 410.319 191.888 410.249 189.732 410.265L189.271 410.27C185.108 410.332 180.944 410.254 176.78 410.296C171.363 410.349 166.025 411.137 161.114 413.438C155.385 416.122 150.281 419.725 146.27 424.784C143.662 428.074 141.299 431.466 140.043 435.487C139.517 437.173 138.114 436.838 137.252 436.684L136.364 436.52C134.287 436.126 132.184 435.622 130.33 434.697C127.357 433.214 124.446 431.451 121.867 429.363C117.382 425.731 113.682 421.306 111.446 415.935C109.998 412.456 108.794 408.807 108.063 405.118C107.556 402.561 107.981 399.834 107.892 397.179L107.867 396.649C107.705 394.054 108.137 391.579 108.756 389.108L108.874 388.645C109.693 385.489 110.194 382.21 111.381 379.202C112.475 376.43 114.129 373.873 115.651 371.276L115.975 370.719C119.098 365.296 123.086 360.53 127.574 356.214C133.383 350.628 139.838 345.855 146.771 341.743L149.597 340.061C151.484 338.944 153.383 337.848 155.338 336.865C157.551 335.752 159.888 334.88 162.207 333.983L162.979 333.683C164.988 332.896 167.017 332.144 169.074 331.493C171.921 330.594 174.792 329.766 177.672 328.98C179.695 328.428 181.731 327.883 183.795 327.538C186.305 327.119 188.854 326.949 191.378 326.604C193.44 326.322 195.489 325.945 197.542 325.602C197.682 325.579 197.811 325.486 197.944 325.425C197.798 325.374 197.647 325.269 197.505 325.279C196.094 325.378 194.682 325.613 193.276 325.58C190.929 325.525 188.585 325.307 186.241 325.142C185.764 325.108 185.292 324.948 184.817 324.944C182.221 324.924 179.625 324.974 177.031 324.92C175.507 324.889 173.988 324.646 172.465 324.613C169.927 324.56 167.386 324.638 164.847 324.584C163.324 324.552 161.805 324.31 160.281 324.277C158.296 324.234 156.309 324.251 154.322 324.259L152.831 324.263C150.348 324.263 147.861 324.349 145.382 324.236C143.285 324.141 141.203 323.723 139.105 323.624C137.76 323.56 136.397 323.928 135.046 323.902C132.637 323.854 130.232 323.619 127.822 323.532C126.395 323.48 124.959 323.63 123.533 323.57C121.132 323.47 118.735 323.282 116.337 323.116C115.858 323.083 115.384 322.931 114.908 322.928C111.977 322.91 109.044 322.955 106.114 322.904C104.591 322.877 103.072 322.629 101.548 322.597C98.9538 322.544 96.3575 322.583 93.7621 322.583L88.4592 322.583C87.5754 322.584 86.6916 322.586 85.8078 322.59C85.5584 322.591 85.3094 322.701 85.0603 322.76L85.524 322.994C85.6009 323.034 85.677 323.075 85.7519 323.118C91.1214 326.211 95.9937 329.942 100.174 334.529C102.972 337.599 105.528 340.859 107.059 344.778C107.775 346.613 108.485 348.474 108.924 350.385C109.19 351.543 108.817 352.832 108.937 354.042C109.096 355.641 108.801 357.135 108.228 358.583C106.46 363.046 103.457 366.434 99.3805 368.983C96.624 370.707 93.7363 372.059 90.5626 372.641C88.0845 373.095 85.5514 373.335 83.0324 373.457C80.7848 373.565 78.5092 373.513 76.2718 373.283C74.3602 373.086 72.4933 372.488 70.5917 372.153C68.5571 371.794 66.4975 371.576 64.463 371.217C63.1599 370.986 61.8928 370.555 60.5915 370.311C57.8584 369.797 55.1051 369.388 52.3767 368.852C51.0372 368.588 49.7392 368.12 48.4137 367.778L47.7413 367.603C47.2914 367.489 46.8384 367.385 46.3834 367.329L46.0417 367.298C44.9337 367.229 44.276 366.28 44.7455 365.223C44.7679 365.172 45.0716 365.22 45.2335 365.263C46.613 365.627 47.9868 366.013 49.3684 366.369L52.7386 367.238C53.8628 367.524 54.9884 367.805 56.1174 368.071C58.9142 368.731 61.7151 369.379 64.531 369.949C66.2239 370.291 67.9319 370.568 69.6428 370.815L72.0113 371.148C73.578 371.366 75.1496 371.567 76.7224 371.606C78.8753 371.66 81.0344 371.387 83.1928 371.318C84.8537 371.265 86.5231 371.389 88.1783 371.279C89.2908 371.205 90.4352 370.994 91.4778 370.608C93.9761 369.684 96.4608 368.702 98.8805 367.59C101.827 366.236 103.993 363.843 106.035 361.446C106.751 360.606 106.77 359.056 106.796 357.823C106.802 357.514 105.636 357.048 104.953 356.881C101.973 356.152 98.9528 355.587 95.9885 354.806C93.6335 354.186 91.35 353.299 89.0128 352.604C87.2843 352.09 85.5082 351.738 83.7752 351.238C81.1716 350.486 79.6238 348.29 79.8261 345.758C79.829 345.721 79.7118 345.67 79.7184 345.641C80.1102 343.939 79.3215 343.536 77.2499 343.94C75.4094 344.298 73.4934 344.26 71.614 344.432C70.6373 344.522 69.6558 344.631 68.6971 344.83C66.3817 345.312 64.0954 346.155 61.7657 346.285C59.263 346.424 56.7259 345.837 54.7002 344.127C52.6078 342.36 50.5886 340.506 48.556 338.67C47.0416 337.302 45.554 335.905 44.0613 334.513C43.8288 334.296 43.6324 334.041 43.4193 333.803C43.8346 333.795 44.3861 333.609 44.643 333.807C46.3859 335.147 48.2655 336.389 49.7203 338.005L50.7957 339.201C52.5969 341.182 54.4853 343.041 57.1164 343.781C59.2046 344.368 61.5018 344.436 63.6937 344.367C65.7681 344.301 67.8446 343.833 69.8872 343.39C71.175 343.11 72.4599 342.723 73.6819 342.222L74.137 342.028C76.4705 341.002 79.1252 341.181 80.9448 342.932L81.5659 343.562C82.1682 344.184 82.7642 344.919 82.5775 345.949L82.5414 346.114C82.4734 346.38 82.505 346.697 82.3715 346.918L82.0353 347.483C81.4723 348.463 81.5907 348.608 82.8399 349.001L83.2491 349.127C85.8357 349.919 88.4079 350.768 91.0209 351.462C93.879 352.222 96.7924 352.773 99.6514 353.53C101.672 354.064 103.645 354.78 105.633 355.436C106.452 355.707 107.484 354.749 107.551 353.51C107.616 352.299 107.789 351.028 107.511 349.881C107.117 348.25 106.583 346.566 105.709 345.153C101.991 339.143 97.6846 333.561 92.4136 328.83C89.1461 325.897 79.3056 320.465 71.5877 318.843C63.8698 317.222 51.7338 318.137 49.3684 319.514C47.0029 320.89 43.451 322.475 41.8731 322.894C41.7369 322.93 41.4236 322.76 41.3837 322.628C40.9337 321.14 42.0319 320.441 43.0284 319.925C45.3802 318.708 47.7899 317.593 50.2245 316.549C53.4333 315.173 56.9268 314.995 60.3194 314.612C62.1625 314.404 64.1216 315.121 66.015 315.489C67.8846 315.852 69.7615 316.218 71.5877 316.748C72.5724 317.033 73.4608 317.656 74.387 318.137C78.0656 320.05 81.6105 319.966 85.1511 317.671C86.2705 316.945 87.7245 316.759 88.9368 316.15C94.2403 313.484 99.5159 310.764 104.793 308.045C109.933 305.397 115.061 302.727 120.196 300.069C120.849 299.731 121.524 299.432 122.151 299.052C122.255 298.989 122.261 298.475 122.143 298.382C119.7 296.462 117.26 294.535 114.764 292.683C109.758 288.97 104.646 285.395 99.7237 281.575C97.0381 279.49 94.5068 277.157 92.1614 274.693C86.9965 269.268 82.0932 263.592 76.8947 258.2C72.3392 253.474 67.5718 248.948 62.7634 244.479C62.2377 243.99 60.428 244.041 59.8874 244.553C57.2834 247.019 54.9087 249.728 52.458 252.355C52.201 252.631 52.0002 252.96 51.7338 253.225C51.5791 253.379 51.3457 253.454 51.1477 253.564C51.1356 253.345 51.0768 253.117 51.1187 252.908C51.4413 251.309 51.4729 249.549 52.2071 248.162C52.9362 246.786 58.2846 241.209 60.9891 241.209C63.6937 241.209 87.786 266.409 87.786 266.409C91.4425 270.388 95.1305 274.337 98.9819 278.118C104.934 283.96 111.298 289.375 118.218 294.081C121.462 296.288 125.089 297.343 128.976 296.986C130.832 296.816 132.606 295.87 134.465 295.568C136.25 295.278 138.097 295.377 139.915 295.284C142.218 295.166 144.382 295.798 146.589 296.335C149.253 296.983 151.785 297.902 154.267 299.047C160.544 301.942 165.912 306.232 171.571 310.091C176.082 313.167 180.673 316.156 185.421 318.843C188.06 320.337 191.036 321.328 193.965 322.188C196.461 322.921 199.109 323.133 201.685 323.596C202.477 323.739 203.251 323.982 204.042 324.123L206.718 324.602C208.057 324.839 209.397 325.066 210.742 325.259C213.453 325.646 216.176 325.953 218.897 326.276C221.838 326.625 224.781 326.956 227.725 327.285C229.798 327.518 231.872 327.733 233.946 327.96C235.964 328.181 237.977 328.475 240.001 328.614C242.639 328.795 245.29 328.8 247.928 328.988C249.487 329.099 251.025 329.479 252.583 329.623C254.529 329.803 256.487 329.849 258.437 329.987C258.845 330.016 259.237 330.273 259.644 330.299C261.818 330.437 264.005 330.447 266.169 330.674C268.137 330.88 270.07 331.438 272.039 331.601C274.077 331.77 276.14 331.632 278.192 331.67C278.595 331.678 278.991 331.957 279.398 331.979C281.965 332.116 284.534 332.203 287.101 332.34C287.508 332.362 287.899 332.608 288.308 332.654C290.472 332.898 292.635 333.203 294.808 333.311C297.081 333.423 299.364 333.316 301.642 333.351C302.157 333.359 302.665 333.611 303.184 333.663C305.629 333.907 308.073 334.218 310.524 334.318C313.302 334.431 316.089 334.321 318.871 334.359C319.61 334.369 320.343 334.611 321.085 334.672L324.624 334.965C326.394 335.108 328.165 335.24 329.937 335.334C331.8 335.432 333.672 335.313 335.538 335.361C338.704 335.441 341.868 335.602 345.034 335.679C347.068 335.728 349.107 335.742 351.138 335.639C351.507 335.62 352.134 334.972 352.144 334.601C352.177 333.419 352.964 295.74 352.886 294.608C352.872 294.402 353.067 294.181 353.165 293.967C353.291 294.154 353.51 294.333 353.527 294.53C353.665 296.144 354.439 332.403 354.443 335.333C354.443 335.452 355.067 335.683 355.392 335.668C356.804 335.602 399.633 335.869 401.64 335.733C402.437 335.679 403.048 335.446 402.956 334.391C402.785 332.426 402.933 288.398 402.933 288.398C402.933 288.398 384.009 274.693 378.06 274.542ZM487.904 337.1C485.819 337.369 483.825 338.448 481.745 338.624C479.063 338.851 476.904 340.229 474.59 341.223C470.911 342.804 467.403 344.781 463.738 346.397C462.133 347.105 460.311 347.313 458.601 347.796C457.839 348.011 455.939 348.457 455.839 348.474L453.579 348.848C452.45 349.038 451.323 349.239 450.204 349.477C447.413 350.069 444.634 350.715 441.86 351.381C439.568 351.93 437.294 352.56 435.002 353.107L433.625 353.425C429.478 354.34 425.61 355.942 422.067 358.228C418.02 360.84 414.47 363.996 412.331 368.463C411.535 370.125 411.958 371.091 413.616 371.309C414.11 371.374 414.6 371.462 415.093 371.531C416.17 371.683 417.243 371.877 418.326 371.969C420.106 372.12 421.893 372.197 423.676 372.318C425.199 372.42 426.718 372.591 428.241 372.638C430.051 372.695 431.864 372.617 433.674 372.659C437.548 372.748 441.421 372.931 445.295 372.965C447.319 372.982 449.344 372.699 451.371 372.666C454.693 372.612 458.018 372.695 461.34 372.639C463.138 372.608 464.936 372.543 466.734 372.468L470.329 372.311C472.375 372.223 474.422 372.134 476.463 371.968C478.577 371.796 480.686 371.543 482.794 371.299C483.258 371.245 483.705 371.011 484.168 370.984C486.51 370.845 488.856 370.761 491.198 370.623C491.605 370.599 492 370.325 492.404 370.315C494.007 370.272 495.624 370.413 497.211 370.246C498.846 370.074 500.438 369.494 502.073 369.322C504.364 369.081 506.682 369.101 508.98 368.914C510.504 368.79 512.014 368.495 513.532 368.285C514.612 368.136 515.703 368.053 516.771 367.845C517.898 367.626 518.989 367.208 520.12 367.026C522.69 366.613 525.274 366.285 527.855 365.933C529.613 365.693 531.385 365.533 533.128 365.217C534.315 365.003 535.467 364.593 536.62 364.225C536.708 364.197 536.785 363.684 536.688 363.597C535.553 362.584 534.403 361.586 533.22 360.63C528.65 356.937 524.058 353.273 519.491 349.575C515.796 346.584 512.251 343.387 508.403 340.609C505.526 338.532 503.047 338.913 501.606 341.097L501.214 341.684C499.77 343.822 498.215 345.782 495.907 347.075C495.692 347.195 495.56 347.461 495.39 347.659C495.662 347.813 495.954 348.125 496.202 348.094C497.303 347.955 498.385 347.622 499.485 347.555C500.045 347.521 500.644 347.873 501.185 348.134C501.25 348.165 501.164 348.799 500.982 349.013C497.405 353.221 492.699 355.639 487.552 357.279C485.421 357.958 483.194 358.328 481.034 358.926C479.352 359.392 477.73 360.088 476.038 360.511C474.126 360.99 472.17 361.298 470.226 361.642C468.912 361.874 467.579 362.003 466.267 362.244C464.574 362.554 462.898 362.96 461.204 363.266C460.14 363.459 459.06 363.59 457.981 363.671C456.132 363.81 454.279 363.95 452.426 363.977C449.989 364.014 447.55 363.951 445.113 363.906C444.742 363.899 444.373 363.758 444.003 363.679C444.503 363.533 444.994 363.328 445.504 363.256C446.329 363.14 447.168 363.129 447.997 363.04C449.179 362.913 450.355 362.732 451.538 362.619C452.834 362.496 454.146 362.499 455.431 362.312C457.392 362.027 459.33 361.58 461.29 361.288C463.008 361.031 464.755 360.963 466.467 360.679C467.916 360.439 469.322 359.951 470.767 359.675C472.522 359.339 474.322 359.212 476.059 358.809C478.058 358.345 480.032 357.746 481.975 357.083C484.262 356.302 486.502 355.386 488.766 354.537C491.263 353.601 493.773 352.699 496.255 351.724C496.786 351.515 497.221 351.059 497.7 350.717C497.002 350.412 496.315 350.072 495.596 349.826C495.412 349.763 495.133 350.028 494.885 350.09C493.884 350.341 492.888 350.697 491.872 350.772C490.972 350.838 489.942 350.643 490 349.366C490.023 348.859 490.246 348.034 490.576 347.918C495.139 346.322 498.321 343.096 500.978 339.248C501.148 339.001 500.968 338.141 500.796 338.09C499.726 337.773 498.62 337.502 497.51 337.414C496.078 337.301 494.629 337.415 493.19 337.358C491.423 337.289 489.626 336.879 487.904 337.1ZM404.696 288.398L404.778 289.643C404.95 292.426 405.655 330.536 405.86 332.832C405.899 333.267 406.606 334.086 406.999 334.142C408.34 334.333 417.052 336.355 417.052 332.832C416.94 327.618 417.183 292.078 417.005 292.03C415.337 291.58 405.085 288.48 404.696 288.398ZM133.412 297.653C129.724 298.708 126.065 299.954 122.539 301.462C118.493 303.191 114.577 305.235 110.658 307.247C106.082 309.597 101.568 312.069 97.0192 314.472C95.6885 315.175 94.3449 315.857 92.98 316.491C90.7576 317.522 88.5113 318.501 86.2803 319.514C86.0751 319.607 85.9077 319.783 85.7228 319.921C85.9324 320.024 86.1338 320.193 86.3529 320.22L88.2738 320.465C89.5546 320.626 90.8366 320.778 92.1224 320.877C92.8437 320.933 93.5897 320.598 94.3204 320.615C96.4262 320.663 98.5304 320.792 100.634 320.907C101.391 320.948 102.144 321.047 102.9 321.109C104.852 321.267 106.801 321.471 108.756 321.561C111.157 321.672 113.562 321.687 116.134 321.911C118.272 321.799 120.413 321.547 122.546 321.609C125.257 321.689 127.957 322.103 130.669 322.215C132.183 322.278 133.715 321.884 135.231 321.937C139.508 322.086 143.779 322.477 148.056 322.547C151.758 322.607 155.465 322.286 159.171 322.262C166.785 322.211 174.401 322.226 182.015 322.262C183.761 322.27 185.506 322.482 187.252 322.567C187.455 322.577 187.669 322.374 187.877 322.27C187.74 322.15 187.617 322.007 187.464 321.914C182.682 318.997 177.893 316.092 173.113 313.172C169.05 310.69 165.064 308.07 160.939 305.699L159.559 304.919C155.166 302.478 151.321 298.959 146.209 297.889C144.21 297.471 142.207 296.815 140.197 296.784C137.935 296.749 135.586 297.03 133.412 297.653Z" fill="#00160A"/>
<path id="Stroke_2" fill-rule="evenodd" clip-rule="evenodd" d="M169.815 276.966C172.394 273.379 174.747 269.764 177.416 266.399C181.691 261.011 186.139 255.759 190.586 250.511C192.753 247.954 195.047 245.5 197.351 243.063C200.562 239.669 203.674 236.158 207.121 233.018C212.677 227.956 218.446 223.125 224.174 218.254C230.656 212.743 237.778 208.123 245.072 203.797C249.037 201.446 253.239 199.479 257.402 197.481C260.393 196.047 263.485 194.817 266.556 193.554C269.572 192.314 272.584 191.049 275.662 189.979C278.088 189.136 280.594 188.5 283.096 187.904C285.745 187.274 288.426 186.771 291.104 186.268C293.245 185.865 295.395 185.503 297.553 185.198C299.613 184.906 301.683 184.665 303.756 184.486C305.74 184.314 307.734 184.146 309.722 184.16C312.868 184.183 316.014 184.453 319.159 184.442C321.442 184.433 323.683 184.429 325.98 184.687C328.266 184.943 330.569 185.213 332.866 185.407C335.178 185.602 337.42 185.951 339.681 186.443C341.743 186.891 343.937 186.749 345.989 187.228C348.921 187.912 351.768 188.956 354.668 189.788C357.677 190.65 360.744 191.329 363.715 192.303C365.773 192.977 367.689 194.071 369.709 194.874C371.858 195.729 374.125 196.315 376.215 197.288C378.749 198.469 381.158 199.92 383.608 201.277C390.025 204.831 396.232 208.71 401.992 213.271C403.812 214.713 405.6 216.195 407.396 217.667C407.654 217.879 407.961 218.098 408.092 218.385C408.323 218.887 408.435 219.444 408.598 219.978C408.169 219.737 407.687 219.559 407.319 219.247C401.763 214.522 395.629 210.62 389.443 206.811C386.574 205.046 383.526 203.568 380.532 202.013C378.941 201.187 377.324 200.396 375.663 199.728C372.038 198.269 368.382 196.886 364.729 195.497C362.067 194.485 359.416 193.433 356.713 192.545C353.713 191.559 350.679 190.656 347.62 189.875C344.95 189.192 342.239 188.643 339.519 188.2C337.798 187.921 336.016 188.039 334.286 187.804C332.874 187.612 331.513 187.005 330.101 186.865C328.4 186.696 326.668 186.85 324.95 186.809C324.434 186.797 323.923 186.509 323.409 186.504C320.478 186.473 317.546 186.522 314.615 186.474C313.316 186.452 312.017 186.155 310.722 186.181C309.215 186.212 307.715 186.497 306.206 186.601C304.521 186.717 302.826 186.711 301.141 186.839C299.898 186.934 298.656 187.115 297.428 187.337C295.653 187.659 293.898 188.087 292.122 188.402C290.781 188.641 289.406 188.703 288.072 188.974C286.432 189.307 284.809 189.736 283.199 190.195C281.217 190.761 279.26 191.417 277.283 192.006C275.569 192.517 273.789 192.85 272.132 193.502C266.803 195.6 261.444 197.644 256.234 200.012C248.664 203.454 241.49 207.657 234.654 212.39C230.358 215.364 226.208 218.554 222.05 221.723C213.722 228.072 206.37 235.494 199.135 243.015C195.439 246.856 192.058 251.011 188.663 255.13C185.209 259.319 181.834 263.58 178.567 267.916C175.306 272.244 172.14 276.649 169.084 281.124C166.387 285.072 163.903 289.165 161.309 293.184C161.192 293.366 160.924 293.452 160.726 293.583C160.76 293.392 160.75 293.177 160.835 293.013C162.569 289.698 164.267 286.363 166.073 283.087C167.208 281.028 168.506 279.059 169.815 276.966Z" fill="#00160A"/>
<path id="Stroke_3" fill-rule="evenodd" clip-rule="evenodd" d="M493.668 234.542C491.556 235.438 489.645 236.417 487.66 237.212C483.652 238.819 479.682 240.504 475.49 241.657C472.814 242.393 470.189 243.096 467.404 243.331C465.451 243.496 463.547 244.468 461.609 244.512C458.922 244.573 456.712 245.636 454.606 247.005C452.645 248.279 450.878 249.848 448.959 251.193C448.269 251.676 447.411 252.047 446.585 252.178C445.356 252.372 444.086 252.295 442.835 252.354C440.641 252.457 438.448 252.661 436.254 252.663C434.058 252.666 431.863 252.471 429.667 252.366C429.333 252.35 428.994 252.32 428.665 252.357C426.814 252.569 424.937 252.671 423.122 253.056C420.846 253.539 418.615 254.237 416.377 254.884C414.363 255.466 412.274 255.905 410.379 256.763C406.791 258.389 403.319 260.273 399.795 262.042C399.539 262.171 399.256 262.245 398.986 262.344C399.131 262.146 399.249 261.919 399.425 261.754C401.113 260.182 402.616 258.295 404.553 257.136C407.115 255.603 409.964 254.48 412.796 253.485C415.028 252.7 417.415 252.344 419.745 251.854C421.816 251.419 423.89 250.968 425.986 250.696C428.494 250.369 431.023 250.11 433.549 250.035C435.626 249.973 437.73 250.447 439.789 250.282C442.814 250.04 445.84 249.574 448.803 248.921C449.906 248.678 451.127 247.846 451.781 246.92C453.081 245.082 454.892 243.929 456.789 243.157C458.518 242.453 460.57 242.548 462.475 242.267C464.249 242.005 466.021 241.73 467.789 241.429C469.302 241.172 470.854 241.016 472.306 240.555C474.232 239.943 476.061 239.032 477.966 238.341C478.969 237.976 480.099 237.937 481.074 237.522C483.621 236.439 486.096 235.19 488.633 234.085C490.73 233.171 492.869 232.351 495.001 231.522C498.363 230.214 501.692 228.801 505.119 227.693C507.168 227.031 509.381 226.887 511.512 226.47C513.022 226.174 514.508 225.621 516.026 225.527C517.759 225.42 519.52 225.654 521.262 225.818C522.626 225.947 523.98 226.189 525.336 226.392C526.03 226.496 525.965 226.846 525.463 227.089C523.928 227.832 522.388 228.352 520.578 228.213C518.74 228.072 516.864 228.343 515.01 228.503C512.913 228.684 510.795 228.799 508.738 229.206C506.737 229.602 504.781 230.267 502.846 230.933C500.873 231.612 498.947 232.427 497.008 233.201C495.943 233.627 494.893 234.094 493.668 234.542Z" fill="#00160A"/>
<path id="Stroke_4" fill-rule="evenodd" clip-rule="evenodd" d="M494.76 428.349C495.596 429.857 496.76 431.222 496.974 432.722C497.162 434.031 497.713 435.646 496.415 437.005C495.087 438.394 494.023 440.032 492.819 441.542C490.563 444.373 487.486 445.392 483.996 445.586C481.267 445.737 478.548 446.053 475.82 446.233C473.388 446.393 470.95 446.471 468.515 446.578C465.856 446.695 463.197 446.87 460.538 446.891C458.794 446.905 457.043 446.544 455.305 446.61C451.814 446.742 448.681 445.798 446.469 443.132C444.437 440.683 443.617 437.916 444.367 434.414C445.746 427.969 449.53 423.297 454.167 419.107C455.595 417.817 457.325 416.808 459.038 415.899C461.236 414.733 463.469 413.289 465.843 412.886C469.098 412.333 472.291 411.515 475.854 412.142C481.55 413.144 485.699 416.013 489.074 420.351C491.057 422.899 492.816 425.621 494.76 428.349ZM494.844 431.458C491.854 426.284 488.857 421.056 484.013 417.384C482.01 415.867 479.537 414.748 477.105 414.086C474.874 413.478 472.483 413.656 470.044 414.092C467.06 414.626 464.181 415.274 461.434 416.494C457.523 418.23 454.221 420.847 451.508 424.102C447.555 428.845 444.326 433.845 446.754 440.542C447.666 443.057 450.875 445.049 453.575 444.613C455.204 444.351 456.916 444.552 458.588 444.609C460.003 444.658 461.422 444.935 462.827 444.869C465.258 444.754 467.675 444.344 470.106 444.254C473.142 444.141 476.187 444.227 479.227 444.227C480.31 444.227 481.419 444.38 482.468 444.193C484.301 443.866 486.205 443.576 487.887 442.834C492.036 441.005 496.555 437.326 494.844 431.458Z" fill="#00160A"/>
<path id="Stroke_5" fill-rule="evenodd" clip-rule="evenodd" d="M237.022 438.598C238.649 436.636 240.374 434.875 241.688 432.849C243.353 430.281 243.497 427.365 243.136 424.315C242.819 421.647 243.824 419.244 245.647 417.171C247.687 414.852 250.379 413.62 253.108 412.464C255.562 411.425 258.031 412.23 260.296 413.107C261.333 413.509 262.188 414.793 262.774 415.868C264.371 418.802 265.186 422.049 266.287 425.186C267.153 427.654 266.439 429.62 265.299 431.331C264.192 432.992 262.417 434.313 260.71 435.442C258.598 436.84 256.34 438.113 253.984 439.025C251.462 440.002 248.756 440.512 246.123 441.195C245.089 441.464 244.043 441.713 242.986 441.854C242.198 441.959 241.383 441.844 240.582 441.88C238.062 441.994 235.543 442.174 233.022 442.249C231.035 442.308 229.045 442.25 227.056 442.241C224.934 442.232 222.812 442.173 220.691 442.224C218.554 442.275 216.42 442.439 214.284 442.544C213.838 442.565 213.387 442.521 212.942 442.556C212.665 442.578 212.395 442.693 212.122 442.766C212.347 442.469 212.513 442.01 212.807 441.901C214.596 441.239 216.417 440.681 218.369 440.866C218.425 440.871 218.481 440.87 218.537 440.866C220.883 440.678 223.229 440.472 225.577 440.306C226.621 440.233 227.67 440.226 228.717 440.209C229.856 440.192 230.997 440.179 232.136 440.201C232.959 440.217 233.863 440.53 234.584 440.283C235.45 439.986 236.16 439.236 237.022 438.598ZM245.507 421.713C245.487 422.925 245.5 424.139 245.441 425.35C245.357 427.072 245.607 428.936 245.028 430.482C243.829 433.685 241.872 436.508 239.398 438.931C239.026 439.295 238.785 439.792 238.483 440.227C239.076 440.328 239.671 440.519 240.262 440.507C240.965 440.494 241.677 440.359 242.362 440.185C244.453 439.652 246.602 439.252 248.603 438.477C252.612 436.923 256.581 435.246 260.482 433.437C262.564 432.471 264.051 430.761 264.121 428.317C264.163 426.868 263.917 425.409 263.691 423.952C263.302 421.438 262.151 419.361 261.137 417.163C260.401 415.569 258.962 414.569 257.453 414.422C255.676 414.249 253.74 414.59 252.025 415.163C248.92 416.199 246.681 418.312 245.507 421.713Z" fill="#00160A"/>
<path id="Stroke_6" fill-rule="evenodd" clip-rule="evenodd" d="M395.798 261.508C394.929 258.47 396.56 256.205 398.089 254.075C401.483 249.349 406.274 246.339 411.481 243.965C413.739 242.936 416.022 241.913 418.381 241.161C421.215 240.258 424.143 239.649 427.03 238.909C427.433 238.806 427.828 238.619 428.235 238.587C429.331 238.5 428.852 238.08 428.438 237.701C425.924 235.398 423.403 233.104 420.88 230.81C419.743 229.777 418.582 228.768 417.467 227.712C417.127 227.389 416.818 226.977 416.651 226.545C416.491 226.135 416.536 225.645 416.49 225.191C416.912 225.35 417.435 225.401 417.741 225.685C421.544 229.216 425.313 232.784 429.1 236.332C429.572 236.774 430.385 237.596 430.551 237.488C431.199 237.068 431.902 236.423 432.123 235.717C432.646 234.052 432.82 232.279 433.29 230.593C434.147 227.521 436.533 225.783 439.198 224.492C442.47 222.906 445.829 221.49 449.194 220.107C453.428 218.366 457.714 216.751 461.963 215.046C465.924 213.457 469.791 211.584 473.848 210.307C475.832 209.682 478.152 210.123 480.321 210.096C480.4 210.095 480.482 210.256 480.563 210.341C480.42 210.455 480.295 210.621 480.132 210.676C475.79 212.141 471.418 213.524 467.107 215.076C464.133 216.147 461.256 217.486 458.308 218.633C457.076 219.112 455.723 219.29 454.507 219.802C451.962 220.874 449.488 222.112 446.954 223.212C445.09 224.021 443.129 224.618 441.3 225.494C438.823 226.681 436.224 227.879 435.41 230.851C435.106 231.958 435.534 233.304 435.115 234.331C434.529 235.763 433.684 237.244 432.553 238.264C430.225 240.365 427.248 241.262 424.217 241.95C422.372 242.369 420.586 243.079 418.73 243.415C414.988 244.091 411.551 245.56 408.253 247.336C403.701 249.788 400.113 253.313 397.638 257.869C396.967 259.105 396.687 260.551 396.21 261.895C396.159 262.039 395.995 262.143 395.884 262.266C395.883 262.041 395.883 261.817 395.798 261.508Z" fill="#00160A"/>
<path id="Stroke_7" fill-rule="evenodd" clip-rule="evenodd" d="M353.206 373.324C350.657 373.212 348.276 373.001 345.896 373.015C343.452 373.03 341.074 372.804 338.651 372.417C336.66 372.099 334.709 371.986 332.87 371.016C331.927 370.518 331.586 370.048 331.647 368.924C331.738 367.245 331.364 365.546 331.386 363.858C331.441 359.577 332.495 355.615 335.8 352.629C337.351 351.227 339.369 350.737 341.314 349.996C344.365 348.835 347.01 350.164 349.656 350.654C352.299 351.143 354.71 352.971 357.177 354.299C359.115 355.341 361.191 356.277 362.821 357.702C364.261 358.96 365.33 360.74 366.259 362.455C366.97 363.769 367.542 365.339 367.553 366.8C367.564 368.052 366.906 369.46 366.162 370.535C364.891 372.372 362.883 372.846 360.713 372.654C360.491 372.635 360.263 372.633 360.042 372.655C357.819 372.874 355.596 373.1 353.206 373.324ZM364.127 366.939C364.502 366.082 365.356 365.083 365.153 364.398C364.734 362.988 364.04 361.393 362.948 360.495C358.153 356.548 353.05 353.138 346.756 351.859C343.426 351.183 340.411 351.579 337.493 353.167C335.328 354.346 335.146 356.147 337.014 357.632C338.021 358.433 339.03 359.233 340.06 360.005C344.44 363.286 349.294 365.602 354.598 366.913C356.603 367.409 358.671 367.758 360.728 367.886C361.785 367.953 362.881 367.387 364.127 366.939ZM363.119 370.635C363.586 370.207 364.054 369.778 364.522 369.35C363.909 369.364 363.295 369.36 362.684 369.401C362.488 369.415 362.293 369.63 362.111 369.614C359.868 369.409 357.609 369.295 355.394 368.92C353.533 368.604 351.635 368.185 349.915 367.439C347.642 366.454 345.487 365.171 343.352 363.899C340.508 362.204 337.583 360.586 335.698 357.687C335.477 357.346 335.062 357.131 334.737 356.858C334.509 357.232 334.165 357.579 334.072 357.984C333.688 359.663 333.341 361.353 333.058 363.052C332.872 364.169 332.718 365.309 332.73 366.437C332.752 368.382 334.129 370.209 335.527 370.295C337.664 370.425 339.876 370.217 341.923 370.708C344.882 371.418 347.829 371.274 350.787 371.284C352.867 371.292 354.947 371.064 357.029 370.977C359.002 370.895 360.977 370.859 363.119 370.635Z" fill="#00160A"/>
<path id="Stroke_8" fill-rule="evenodd" clip-rule="evenodd" d="M392.102 259.828C391.912 258.966 391.698 258.185 391.723 257.411C391.774 255.815 391.802 254.193 392.104 252.633C393.249 246.719 397.478 243.007 401.71 239.253C405.269 236.097 408.94 233.006 411.109 228.586C411.954 226.863 411.84 225.171 411.794 223.316C411.685 218.909 409.269 215.826 406.251 213.282C403.156 210.673 399.642 208.544 396.228 206.333C391.961 203.569 388.332 200.271 386.016 195.639C384.629 192.867 385.319 187.359 387.609 185.24C388.163 184.727 389.041 184.325 389.778 184.312C390.623 184.298 391.034 185.057 390.835 185.959C390.793 186.146 390.7 186.426 390.566 186.472C388.749 187.087 386.98 191.741 388.223 193.505C389.122 194.78 389.446 196.525 390.488 197.621C392.547 199.784 394.877 201.701 397.183 203.613C401.041 206.814 405.08 209.806 408.831 213.125C411.638 215.609 413.65 218.855 414.449 222.502C414.853 224.344 414.491 226.518 413.612 228.406C411.825 232.245 409.036 235.208 405.836 237.946C402.049 241.186 397.86 244.149 395.451 248.673C394.369 250.703 393.638 253.029 393.287 255.304C393.013 257.076 393.588 258.975 393.749 260.821C393.772 261.081 393.583 261.36 393.492 261.63C393.281 261.469 393.014 261.346 392.87 261.138C392.604 260.756 392.41 260.324 392.102 259.828Z" fill="#00160A"/>
<path id="Stroke_9" fill-rule="evenodd" clip-rule="evenodd" d="M575.072 369.039C574.829 370.627 574.824 372.168 574.473 373.625C573.947 375.81 573.294 377.981 572.48 380.075C571.532 382.51 570.424 384.89 569.251 387.227C568.478 388.767 567.517 390.221 566.537 391.642C566.192 392.142 565.535 392.425 565.026 392.815C563.941 393.645 563.67 392.322 563.676 392.026C563.732 389.341 563.593 386.66 564.402 383.996C564.992 382.05 564.943 379.917 565.284 377.885C565.513 376.516 565.952 375.183 566.247 373.824C566.69 371.785 567.066 369.731 567.514 367.693C568.277 364.222 569.083 360.784 572.52 358.779C573.208 358.377 573.527 358.379 574.22 358.83C575.782 359.847 576.441 361.02 576.029 362.921C575.601 364.903 575.436 366.942 575.072 369.039ZM574.316 366.099C574.394 364.565 574.528 363.03 574.514 361.497C574.51 361.069 574.166 360.49 573.802 360.269C573.526 360.102 572.802 360.245 572.573 360.508C571.848 361.342 571.1 362.225 570.65 363.22C569.267 366.271 568.475 369.459 568.168 372.84C567.917 375.605 567.03 378.312 566.427 381.045C566.254 381.831 566.054 382.614 565.921 383.407C565.567 385.521 565.238 387.639 564.912 389.758C564.845 390.19 564.839 390.631 564.804 391.068C565.287 390.765 566.012 390.575 566.213 390.141C567.739 386.845 569.255 383.538 570.589 380.161C571.533 377.771 572.267 375.289 572.937 372.806C573.257 371.622 573.12 370.322 573.359 369.108C573.539 368.19 573.987 367.324 574.316 366.099Z" fill="#00160A"/>
<path id="Stroke_10" fill-rule="evenodd" clip-rule="evenodd" d="M167.043 445.907C165.829 445.683 164.79 445.415 163.735 445.245C162.097 444.981 160.428 444.879 158.81 444.533C156.849 444.114 154.913 443.562 152.993 442.978C151.257 442.449 149.556 441.802 147.847 441.189C147.786 441.167 147.738 440.858 147.784 440.826C148.164 440.562 148.547 440.168 148.966 440.118C152.421 439.698 155.339 441.692 158.569 442.332C161.258 442.864 163.888 443.704 166.583 444.186C168.404 444.512 170.296 444.421 172.152 444.576C173.012 444.648 173.861 444.853 174.713 445.01C176.933 445.417 179.141 445.919 181.375 446.216C183.217 446.461 185.103 446.368 186.944 446.611C188.352 446.798 189.73 447.246 191.106 447.632C193.779 448.381 196.443 449.167 199.109 449.943C199.275 449.991 199.427 450.086 199.586 450.159C199.434 450.198 199.279 450.281 199.131 450.269C197.529 450.133 195.921 450.031 194.328 449.823C192.449 449.578 190.584 449.222 188.709 448.945C187.712 448.798 186.706 448.712 185.703 448.606C183.5 448.376 181.286 448.226 179.098 447.9C177.19 447.616 175.326 447.044 173.418 446.766C171.486 446.485 169.524 446.415 167.577 446.23C167.446 446.218 167.333 446.019 167.043 445.907Z" fill="#00160A"/>
<path id="Stroke_11" fill-rule="evenodd" clip-rule="evenodd" d="M378.42 282.762C381.274 281.749 387.403 286.422 385.412 291.213C383.113 296.745 375.982 295.691 374.09 293.3C370.538 288.809 372.992 284.69 378.42 282.762ZM375.105 287.057C371.529 290.479 377.524 294.477 380.185 293.583C387.238 291.212 382.775 279.718 375.105 287.057Z" fill="#00160A"/>
<path id="Stroke_12" fill-rule="evenodd" clip-rule="evenodd" d="M575.576 376.936C577.293 373.792 578.676 370.547 581.69 368.492C582.052 368.245 582.778 367.934 582.918 368.073C583.305 368.458 583.687 369.063 583.692 369.584C583.731 374.447 580.567 378.076 578.668 382.183C577.666 384.35 576.237 386.321 574.981 388.368C574.731 388.777 574.42 389.16 574.083 389.501C573.768 389.82 573.11 390.346 573.066 390.304C572.537 389.789 571.868 389.248 571.691 388.59C571.514 387.932 571.769 387.111 571.979 386.404C572.729 383.878 573.504 381.358 574.353 378.864C574.58 378.197 575.104 377.632 575.576 376.936ZM573.812 383.741C573.588 384.972 573.358 386.203 573.143 387.436C573.09 387.741 573.086 388.055 573.06 388.365C573.366 388.098 573.781 387.89 573.964 387.556C576.329 383.226 578.71 378.902 580.971 374.518C581.592 373.314 581.854 371.919 582.221 370.595C582.27 370.417 582.006 370.005 581.813 369.947C581.598 369.882 581.156 370.022 581.058 370.204C578.679 374.65 576.332 379.113 573.812 383.741Z" fill="#00160A"/>
<path id="Stroke_13" fill-rule="evenodd" clip-rule="evenodd" d="M391.145 267.324C391.145 262.266 402.094 266.325 403.022 267.79C403.254 268.157 403.73 282.091 402.916 280.131C402.046 277.939 402.648 269.1 401.696 268.492C398.618 266.971 394.895 266.186 393.431 266.703C390.902 267.296 393.595 278.006 392 276.192C391.907 275.875 391.823 275.556 391.72 275.243C391.604 274.89 391.145 269.776 391.145 267.324Z" fill="#00160A"/>
<path id="Stroke_14" fill-rule="evenodd" clip-rule="evenodd" d="M438.559 248.319C437.811 248.188 437.013 248.253 436.69 247.892C435.146 246.17 433.728 244.335 432.274 242.532C432.043 242.245 431.864 241.917 431.66 241.608C432.351 241.508 433.301 241.076 433.683 241.374C434.699 242.165 435.567 243.204 436.315 244.269C437.215 245.552 437.931 246.963 438.559 248.319Z" fill="#00160A"/>
<path id="Stroke_15" fill-rule="evenodd" clip-rule="evenodd" d="M397.562 268.286C397.601 267.856 398.664 268.813 398.692 269.157C398.844 271.084 399.588 279.581 398.897 278.686C398.506 277.859 398.147 275.561 397.975 274.653C397.803 273.746 397.562 271.126 397.562 268.286Z" fill="#00160A"/>
<path id="Stroke_16" fill-rule="evenodd" clip-rule="evenodd" d="M414.148 308.169C414.125 310.118 414.193 312.067 414.148 314.016C414.121 315.168 411.03 315.626 409.67 314.939C408.307 314.25 408.733 308.965 408.657 308.169C408.418 305.67 408.32 303.151 407.938 300.676C407.686 299.046 407.52 297.083 408.296 296.833C411.116 295.921 413.623 299.433 413.499 299.557C413.823 302.083 414.151 307.892 414.148 308.169ZM409.996 302.589C410.108 303.046 410.251 311.007 410.447 313.846C410.479 314.317 412.299 314.317 412.694 313.492C413.072 311.217 412.283 303.085 412.299 300.371C412.302 299.936 411.753 299.315 411.304 299.094C409.824 298.363 409.558 298.569 409.67 300.21C409.717 300.895 409.884 301.572 409.996 302.589Z" fill="#00160A"/>
</g>
<path id="Shadow_2" fill-rule="evenodd" clip-rule="evenodd" d="M315.143 348.724C315.589 348.552 316.091 348.774 316.263 349.22C316.436 349.667 316.214 350.169 315.767 350.341C295.921 358.008 295.921 373.016 316.108 396.155C334.159 416.846 367.913 435.987 417.363 453.533C417.814 453.693 418.05 454.188 417.89 454.639C417.73 455.09 417.234 455.326 416.783 455.166C367.078 437.53 333.088 418.255 314.802 397.295C293.931 373.372 293.931 356.918 315.143 348.724Z" fill="#E7EAEE"/>
<path id="Path 178" d="M348.65 449.987C348.807 449.534 349.3 449.294 349.752 449.451C350.205 449.607 350.445 450.101 350.288 450.553C346.436 461.691 339.402 470.973 329.205 478.383C319.042 485.767 302.252 492.451 278.813 498.464C278.349 498.583 277.877 498.303 277.758 497.84C277.639 497.376 277.918 496.904 278.382 496.785L280.012 496.363C302.406 490.51 318.471 484.04 328.186 476.981C338.101 469.776 344.916 460.783 348.65 449.987Z" fill="#09EEE3"/>
<path id="Shadow_3" fill-rule="evenodd" clip-rule="evenodd" d="M349.613 459.474C349.722 459.007 350.188 458.718 350.654 458.827C351.12 458.935 351.41 459.401 351.301 459.867C347.825 474.765 340.428 485.426 329.121 491.788C317.95 498.072 305.911 502.347 293.008 504.61C292.536 504.693 292.087 504.378 292.004 503.907C291.922 503.435 292.237 502.986 292.708 502.903C305.419 500.673 317.272 496.465 328.271 490.277C339.132 484.166 346.243 473.919 349.613 459.474Z" fill="#E7EAEE"/>
<path id="Shadow_4" fill-rule="evenodd" clip-rule="evenodd" d="M403.854 458.601C403.966 458.135 404.434 457.849 404.899 457.961C422.018 462.083 437.173 464.384 450.361 464.867L451.35 464.9C464.523 465.298 483.552 464.246 508.424 461.742C508.9 461.694 509.325 462.041 509.373 462.517C509.421 462.994 509.074 463.418 508.597 463.466L504.854 463.837C481.119 466.141 462.938 467.062 450.297 466.599C436.985 466.112 421.718 463.794 404.493 459.646C404.028 459.534 403.742 459.066 403.854 458.601Z" fill="#E7EAEE"/>
<path id="Stroke_17" fill-rule="evenodd" clip-rule="evenodd" d="M277.195 356.677C277.587 356.402 278.127 356.496 278.403 356.888C278.678 357.28 278.584 357.82 278.192 358.096C273.375 361.481 270.848 364.903 270.528 368.339C270.205 371.816 272.149 376.611 276.416 382.662C276.692 383.053 276.598 383.594 276.207 383.87C275.816 384.146 275.275 384.052 274.999 383.661C270.516 377.303 268.432 372.162 268.802 368.178C269.177 364.153 272.002 360.327 277.195 356.677Z" fill="#00160A"/>
<path id="Stroke_18" fill-rule="evenodd" clip-rule="evenodd" d="M279.061 360.655C279.338 360.46 279.721 360.527 279.915 360.804C280.11 361.081 280.043 361.463 279.766 361.658C276.358 364.053 274.571 366.474 274.344 368.905C274.115 371.365 275.491 374.757 278.51 379.039C278.705 379.315 278.639 379.698 278.362 379.893C278.085 380.088 277.703 380.022 277.507 379.745C274.336 375.247 272.861 371.61 273.123 368.791C273.388 365.943 275.387 363.237 279.061 360.655Z" fill="#00160A"/>
</g>
</svg>
